<svg width="288" height="46" viewBox="0 0 288 46" fill="none" xmlns="http://www.w3.org/2000/svg">
<path d="M0.589279 12.4688C0.589279 11.0781 0.854904 9.77344 1.38615 8.55469C1.9174 7.33594 2.63615 6.27344 3.5424 5.36719C4.46428 4.44531 5.53459 3.71875 6.75334 3.1875C7.97209 2.65625 9.27678 2.39062 10.6674 2.39062H26.0893V9.11719H10.6674C10.1987 9.11719 9.76115 9.20312 9.3549 9.375C8.94865 9.54688 8.58928 9.78906 8.27678 10.1016C7.9799 10.3984 7.74553 10.75 7.57365 11.1562C7.40178 11.5625 7.31584 12 7.31584 12.4688C7.31584 12.9375 7.40178 13.3828 7.57365 13.8047C7.74553 14.2109 7.9799 14.5703 8.27678 14.8828C8.58928 15.1797 8.94865 15.4141 9.3549 15.5859C9.76115 15.7578 10.1987 15.8438 10.6674 15.8438H17.394C18.7846 15.8438 20.0893 16.1094 21.308 16.6406C22.5424 17.1562 23.6127 17.875 24.519 18.7969C25.4408 19.7031 26.1596 20.7734 26.6752 22.0078C27.2065 23.2266 27.4721 24.5312 27.4721 25.9219C27.4721 27.3125 27.2065 28.6172 26.6752 29.8359C26.1596 31.0547 25.4408 32.125 24.519 33.0469C23.6127 33.9531 22.5424 34.6719 21.308 35.2031C20.0893 35.7344 18.7846 36 17.394 36H2.46428V29.2734H17.394C17.8627 29.2734 18.3002 29.1875 18.7065 29.0156C19.1127 28.8438 19.4643 28.6094 19.7612 28.3125C20.0737 28 20.3158 27.6406 20.4877 27.2344C20.6596 26.8281 20.7455 26.3906 20.7455 25.9219C20.7455 25.4531 20.6596 25.0156 20.4877 24.6094C20.3158 24.2031 20.0737 23.8516 19.7612 23.5547C19.4643 23.2422 19.1127 23 18.7065 22.8281C18.3002 22.6562 17.8627 22.5703 17.394 22.5703H10.6674C9.27678 22.5703 7.97209 22.3047 6.75334 21.7734C5.53459 21.2422 4.46428 20.5234 3.5424 19.6172C2.63615 18.6953 1.9174 17.625 1.38615 16.4062C0.854904 15.1719 0.589279 13.8594 0.589279 12.4688ZM55.9839 36H54.437L51.9527 32.5547C51.3433 33.1016 50.6949 33.6172 50.0074 34.1016C49.3355 34.5703 48.6245 34.9844 47.8745 35.3438C47.1245 35.6875 46.3511 35.9609 45.5542 36.1641C44.773 36.3672 43.9761 36.4688 43.1636 36.4688C41.398 36.4688 39.7339 36.1719 38.1714 35.5781C36.6245 34.9844 35.2652 34.125 34.0933 33C32.937 31.8594 32.023 30.4688 31.3511 28.8281C30.6792 27.1875 30.3433 25.3203 30.3433 23.2266C30.3433 21.2734 30.6792 19.4844 31.3511 17.8594C32.023 16.2188 32.937 14.8125 34.0933 13.6406C35.2652 12.4688 36.6245 11.5625 38.1714 10.9219C39.7339 10.2656 41.398 9.9375 43.1636 9.9375C43.9761 9.9375 44.7808 10.0391 45.5777 10.2422C46.3745 10.4453 47.148 10.7266 47.898 11.0859C48.648 11.4453 49.3589 11.8672 50.0308 12.3516C50.7183 12.8359 51.3589 13.3594 51.9527 13.9219L54.437 10.9453H55.9839V36ZM49.5386 23.2266C49.5386 22.3516 49.3667 21.5078 49.023 20.6953C48.6949 19.8672 48.2417 19.1406 47.6636 18.5156C47.0855 17.875 46.4058 17.3672 45.6245 16.9922C44.8589 16.6016 44.0386 16.4062 43.1636 16.4062C42.2886 16.4062 41.4605 16.5547 40.6792 16.8516C39.9136 17.1484 39.2417 17.5859 38.6636 18.1641C38.1011 18.7422 37.6558 19.4609 37.3277 20.3203C36.9995 21.1641 36.8355 22.1328 36.8355 23.2266C36.8355 24.3203 36.9995 25.2969 37.3277 26.1562C37.6558 27 38.1011 27.7109 38.6636 28.2891C39.2417 28.8672 39.9136 29.3047 40.6792 29.6016C41.4605 29.8984 42.2886 30.0469 43.1636 30.0469C44.0386 30.0469 44.8589 29.8594 45.6245 29.4844C46.4058 29.0938 47.0855 28.5859 47.6636 27.9609C48.2417 27.3203 48.6949 26.5938 49.023 25.7812C49.3667 24.9531 49.5386 24.1016 49.5386 23.2266ZM68.4645 36L58.902 10.8984H66.1911L71.6754 26.5547L77.1364 10.8984H84.4489L74.8864 36H68.4645ZM96.5779 29.8594C96.8279 29.9375 97.0779 29.9922 97.3279 30.0234C97.5779 30.0391 97.8279 30.0469 98.0779 30.0469C98.7029 30.0469 99.3045 29.9609 99.8826 29.7891C100.461 29.6172 101 29.375 101.5 29.0625C102.015 28.7344 102.469 28.3438 102.859 27.8906C103.265 27.4219 103.594 26.9062 103.844 26.3438L108.531 31.0547C107.937 31.8984 107.25 32.6562 106.469 33.3281C105.703 34 104.867 34.5703 103.961 35.0391C103.07 35.5078 102.125 35.8594 101.125 36.0938C100.14 36.3438 99.1248 36.4688 98.0779 36.4688C96.3123 36.4688 94.6482 36.1406 93.0857 35.4844C91.5388 34.8281 90.1795 33.9141 89.0076 32.7422C87.8513 31.5703 86.9373 30.1797 86.2654 28.5703C85.5935 26.9453 85.2576 25.1641 85.2576 23.2266C85.2576 21.2422 85.5935 19.4297 86.2654 17.7891C86.9373 16.1484 87.8513 14.75 89.0076 13.5938C90.1795 12.4375 91.5388 11.5391 93.0857 10.8984C94.6482 10.2578 96.3123 9.9375 98.0779 9.9375C99.1248 9.9375 100.148 10.0625 101.148 10.3125C102.148 10.5625 103.094 10.9219 103.984 11.3906C104.89 11.8594 105.734 12.4375 106.515 13.125C107.297 13.7969 107.984 14.5547 108.578 15.3984L96.5779 29.8594ZM99.8591 16.6641C99.5623 16.5547 99.2654 16.4844 98.9685 16.4531C98.6873 16.4219 98.3904 16.4062 98.0779 16.4062C97.2029 16.4062 96.3748 16.5703 95.5935 16.8984C94.8279 17.2109 94.156 17.6641 93.5779 18.2578C93.0154 18.8516 92.5701 19.5703 92.242 20.4141C91.9138 21.2422 91.7498 22.1797 91.7498 23.2266C91.7498 23.4609 91.7576 23.7266 91.7732 24.0234C91.8045 24.3203 91.8435 24.625 91.8904 24.9375C91.9529 25.2344 92.0232 25.5234 92.1013 25.8047C92.1795 26.0859 92.281 26.3359 92.406 26.5547L99.8591 16.6641ZM135.426 12.4688C135.426 13.8594 135.16 15.1719 134.629 16.4062C134.098 17.625 133.371 18.6953 132.449 19.6172C131.543 20.5234 130.48 21.2422 129.262 21.7734C128.043 22.3047 126.738 22.5703 125.348 22.5703H121.973C121.504 22.5703 121.066 22.6562 120.66 22.8281C120.254 23 119.894 23.2422 119.582 23.5547C119.285 23.8516 119.051 24.2031 118.879 24.6094C118.707 25.0156 118.621 25.4531 118.621 25.9219V29.2734H134.512V36H111.894V25.9219C111.894 24.5312 112.16 23.2266 112.691 22.0078C113.223 20.7734 113.941 19.7031 114.848 18.7969C115.769 17.875 116.84 17.1562 118.058 16.6406C119.277 16.1094 120.582 15.8438 121.973 15.8438H125.348C125.816 15.8438 126.254 15.7578 126.66 15.5859C127.066 15.4141 127.418 15.1797 127.715 14.8828C128.027 14.5703 128.269 14.2109 128.441 13.8047C128.613 13.3828 128.699 12.9375 128.699 12.4688C128.699 12 128.613 11.5625 128.441 11.1562C128.269 10.75 128.027 10.3984 127.715 10.1016C127.418 9.78906 127.066 9.54688 126.66 9.375C126.254 9.20312 125.816 9.11719 125.348 9.11719H113.348V2.39062H125.348C126.738 2.39062 128.043 2.65625 129.262 3.1875C130.48 3.71875 131.543 4.44531 132.449 5.36719C133.371 6.27344 134.098 7.33594 134.629 8.55469C135.16 9.77344 135.426 11.0781 135.426 12.4688ZM158.008 23.2266C158.008 22.3516 157.836 21.5078 157.492 20.6953C157.164 19.8672 156.711 19.1406 156.133 18.5156C155.555 17.875 154.875 17.3672 154.094 16.9922C153.328 16.6016 152.508 16.4062 151.633 16.4062C150.758 16.4062 149.93 16.5547 149.148 16.8516C148.383 17.1484 147.711 17.5859 147.133 18.1641C146.57 18.7422 146.125 19.4609 145.797 20.3203C145.469 21.1641 145.305 22.1328 145.305 23.2266C145.305 24.2734 145.469 25.2188 145.797 26.0625C146.125 26.8906 146.57 27.6016 147.133 28.1953C147.711 28.7891 148.383 29.25 149.148 29.5781C149.93 29.8906 150.758 30.0469 151.633 30.0469C152.508 30.0469 153.328 29.8594 154.094 29.4844C154.875 29.0938 155.555 28.5859 156.133 27.9609C156.711 27.3203 157.164 26.5938 157.492 25.7812C157.836 24.9531 158.008 24.1016 158.008 23.2266ZM164.453 32.8359C164.453 34.6016 164.117 36.2578 163.445 37.8047C162.773 39.3516 161.852 40.7031 160.68 41.8594C159.523 43.0156 158.164 43.9297 156.602 44.6016C155.055 45.2734 153.398 45.6094 151.633 45.6094L148.422 45.5625V39.1641L151.586 39.2109C152.586 39.2109 153.438 39.0781 154.141 38.8125C154.844 38.5625 155.438 38.2109 155.922 37.7578C156.406 37.3203 156.789 36.8125 157.07 36.2344C157.367 35.6562 157.602 35.0469 157.773 34.4062C157.523 34.8125 157.164 35.1484 156.695 35.4141C156.227 35.6641 155.703 35.8672 155.125 36.0234C154.562 36.1953 153.969 36.3125 153.344 36.375C152.734 36.4375 152.164 36.4688 151.633 36.4688C149.867 36.4688 148.203 36.1641 146.641 35.5547C145.094 34.9453 143.734 34.0781 142.562 32.9531C141.406 31.8125 140.492 30.4219 139.82 28.7812C139.148 27.1406 138.812 25.2891 138.812 23.2266C138.812 21.3359 139.148 19.5781 139.82 17.9531C140.492 16.3281 141.406 14.9219 142.562 13.7344C143.734 12.5469 145.094 11.6172 146.641 10.9453C148.203 10.2734 149.867 9.9375 151.633 9.9375C152.445 9.9375 153.25 10.0391 154.047 10.2422C154.844 10.4453 155.617 10.7266 156.367 11.0859C157.117 11.4453 157.828 11.8672 158.5 12.3516C159.188 12.8359 159.828 13.3594 160.422 13.9219L162.906 10.9453H164.453V32.8359ZM179.793 29.8594C180.043 29.9375 180.293 29.9922 180.543 30.0234C180.793 30.0391 181.043 30.0469 181.293 30.0469C181.918 30.0469 182.52 29.9609 183.098 29.7891C183.676 29.6172 184.215 29.375 184.715 29.0625C185.231 28.7344 185.684 28.3438 186.074 27.8906C186.481 27.4219 186.809 26.9062 187.059 26.3438L191.746 31.0547C191.152 31.8984 190.465 32.6562 189.684 33.3281C188.918 34 188.082 34.5703 187.176 35.0391C186.285 35.5078 185.34 35.8594 184.34 36.0938C183.356 36.3438 182.34 36.4688 181.293 36.4688C179.527 36.4688 177.863 36.1406 176.301 35.4844C174.754 34.8281 173.395 33.9141 172.223 32.7422C171.067 31.5703 170.152 30.1797 169.481 28.5703C168.809 26.9453 168.473 25.1641 168.473 23.2266C168.473 21.2422 168.809 19.4297 169.481 17.7891C170.152 16.1484 171.067 14.75 172.223 13.5938C173.395 12.4375 174.754 11.5391 176.301 10.8984C177.863 10.2578 179.527 9.9375 181.293 9.9375C182.34 9.9375 183.363 10.0625 184.363 10.3125C185.363 10.5625 186.309 10.9219 187.199 11.3906C188.106 11.8594 188.949 12.4375 189.731 13.125C190.512 13.7969 191.199 14.5547 191.793 15.3984L179.793 29.8594ZM183.074 16.6641C182.777 16.5547 182.481 16.4844 182.184 16.4531C181.902 16.4219 181.606 16.4062 181.293 16.4062C180.418 16.4062 179.59 16.5703 178.809 16.8984C178.043 17.2109 177.371 17.6641 176.793 18.2578C176.231 18.8516 175.785 19.5703 175.457 20.4141C175.129 21.2422 174.965 22.1797 174.965 23.2266C174.965 23.4609 174.973 23.7266 174.988 24.0234C175.02 24.3203 175.059 24.625 175.106 24.9375C175.168 25.2344 175.238 25.5234 175.317 25.8047C175.395 26.0859 175.496 26.3359 175.621 26.5547L183.074 16.6641ZM208.071 36C206.524 36 205.071 35.7109 203.711 35.1328C202.352 34.5391 201.156 33.7344 200.125 32.7188C199.11 31.6875 198.305 30.4922 197.711 29.1328C197.133 27.7734 196.844 26.3203 196.844 24.7734V17.3203H193.727V10.9453H196.844V0.914062H203.219V10.9453H212.922V17.3203H203.219V24.7734C203.219 25.4453 203.344 26.0781 203.594 26.6719C203.844 27.25 204.188 27.7578 204.625 28.1953C205.063 28.6328 205.578 28.9844 206.172 29.25C206.766 29.5 207.399 29.625 208.071 29.625H212.922V36H208.071ZM223.387 36H216.989V0.914062H223.387V12C224.153 11.4219 224.942 11.0156 225.754 10.7812C226.567 10.5312 227.395 10.4062 228.239 10.4062C229.785 10.4062 231.239 10.7031 232.598 11.2969C233.957 11.875 235.137 12.6797 236.137 13.7109C237.153 14.7266 237.95 15.9219 238.528 17.2969C239.121 18.6562 239.418 20.1094 239.418 21.6562V36H232.973V21.6562H233.02C233.02 21 232.895 20.3828 232.645 19.8047C232.395 19.2109 232.051 18.6953 231.614 18.2578C231.176 17.8203 230.668 17.4766 230.09 17.2266C229.512 16.9766 228.895 16.8516 228.239 16.8516C227.567 16.8516 226.934 16.9766 226.34 17.2266C225.746 17.4766 225.231 17.8203 224.793 18.2578C224.356 18.6953 224.012 19.2109 223.762 19.8047C223.512 20.3828 223.387 21 223.387 21.6562V36ZM254.43 29.8594C254.68 29.9375 254.93 29.9922 255.18 30.0234C255.43 30.0391 255.68 30.0469 255.93 30.0469C256.555 30.0469 257.157 29.9609 257.735 29.7891C258.313 29.6172 258.852 29.375 259.352 29.0625C259.868 28.7344 260.321 28.3438 260.711 27.8906C261.118 27.4219 261.446 26.9062 261.696 26.3438L266.383 31.0547C265.79 31.8984 265.102 32.6562 264.321 33.3281C263.555 34 262.719 34.5703 261.813 35.0391C260.922 35.5078 259.977 35.8594 258.977 36.0938C257.993 36.3438 256.977 36.4688 255.93 36.4688C254.165 36.4688 252.5 36.1406 250.938 35.4844C249.391 34.8281 248.032 33.9141 246.86 32.7422C245.704 31.5703 244.79 30.1797 244.118 28.5703C243.446 26.9453 243.11 25.1641 243.11 23.2266C243.11 21.2422 243.446 19.4297 244.118 17.7891C244.79 16.1484 245.704 14.75 246.86 13.5938C248.032 12.4375 249.391 11.5391 250.938 10.8984C252.5 10.2578 254.165 9.9375 255.93 9.9375C256.977 9.9375 258 10.0625 259 10.3125C260 10.5625 260.946 10.9219 261.836 11.3906C262.743 11.8594 263.586 12.4375 264.368 13.125C265.149 13.7969 265.836 14.5547 266.43 15.3984L254.43 29.8594ZM257.711 16.6641C257.415 16.5547 257.118 16.4844 256.821 16.4531C256.54 16.4219 256.243 16.4062 255.93 16.4062C255.055 16.4062 254.227 16.5703 253.446 16.8984C252.68 17.2109 252.008 17.6641 251.43 18.2578C250.868 18.8516 250.422 19.5703 250.094 20.4141C249.766 21.2422 249.602 22.1797 249.602 23.2266C249.602 23.4609 249.61 23.7266 249.625 24.0234C249.657 24.3203 249.696 24.625 249.743 24.9375C249.805 25.2344 249.875 25.5234 249.954 25.8047C250.032 26.0859 250.133 26.3359 250.258 26.5547L257.711 16.6641ZM276.52 36H270.122V10.8984H271.669L273.778 13.875C274.809 12.9375 275.981 12.2188 277.294 11.7188C278.606 11.2031 279.965 10.9453 281.372 10.9453H287.02V17.3203H281.372C280.7 17.3203 280.067 17.4453 279.473 17.6953C278.879 17.9453 278.364 18.2891 277.926 18.7266C277.489 19.1641 277.145 19.6797 276.895 20.2734C276.645 20.8672 276.52 21.5 276.52 22.1719V36Z" fill="#03C988"/>
</svg>
